<svg xmlns="http://www.w3.org/2000/svg" xmlns:xlink="http://www.w3.org/1999/xlink" width="2000" zoomAndPan="magnify" viewBox="0 0 1500 1499.999933" height="2000" preserveAspectRatio="xMidYMid meet" version="1.0"><defs><g/><clipPath id="0a7fee8671"><rect x="0" width="417" y="0" height="615"/></clipPath><clipPath id="eed9dbb788"><rect x="0" width="728" y="0" height="701"/></clipPath><clipPath id="af0fa2d4b7"><rect x="0" width="106" y="0" height="357"/></clipPath></defs><g transform="matrix(1, 0, 0, 1, 271, 621)"><g clip-path="url(#0a7fee8671)"><g fill="#000000" fill-opacity="1"><g transform="translate(0.843106, 487.859495)"><g><path d="M 346.328125 -58.34375 C 357.648438 -41.71875 367.992188 -29.160156 377.359375 -20.671875 C 386.734375 -12.191406 397.429688 -6.363281 409.453125 -3.1875 L 409.453125 0 L 224.875 0 L 224.875 -3.1875 C 243.613281 -8.488281 252.984375 -18.738281 252.984375 -33.9375 C 252.984375 -39.945312 251.210938 -46.488281 247.671875 -53.5625 C 244.140625 -60.632812 238.132812 -70.359375 229.65625 -82.734375 L 182.984375 -152.21875 L 118.28125 -69.484375 C 106.25 -53.566406 100.234375 -41.539062 100.234375 -33.40625 C 100.234375 -18.5625 110.3125 -8.488281 130.46875 -3.1875 L 130.46875 0 L 3.71875 0 L 3.71875 -3.1875 C 20.6875 -7.070312 36.066406 -13.785156 49.859375 -23.328125 C 63.648438 -32.878906 77.613281 -46.671875 91.75 -64.703125 L 172.375 -167.59375 L 73.1875 -314.515625 C 61.164062 -332.191406 50.023438 -344.921875 39.765625 -352.703125 C 29.515625 -360.484375 18.734375 -365.609375 7.421875 -368.078125 L 7.421875 -371.265625 L 197.296875 -371.265625 L 197.296875 -368.078125 C 177.140625 -365.609375 167.0625 -356.59375 167.0625 -341.03125 C 167.0625 -335.375 169.09375 -328.65625 173.15625 -320.875 C 177.226562 -313.09375 183.507812 -302.835938 192 -290.109375 L 236.546875 -223.28125 L 288 -289.578125 C 297.1875 -300.898438 303.632812 -310.535156 307.34375 -318.484375 C 311.0625 -326.441406 312.921875 -333.25 312.921875 -338.90625 C 312.921875 -355.882812 301.78125 -365.609375 279.5 -368.078125 L 279.5 -371.265625 L 395.65625 -371.265625 L 395.65625 -368.078125 C 383.632812 -365.253906 371.703125 -358.710938 359.859375 -348.453125 C 348.015625 -338.203125 334.3125 -323 318.75 -302.84375 L 246.625 -208.4375 Z M 346.328125 -58.34375 "/></g></g></g></g></g><g fill="#000000" fill-opacity="1"><g transform="translate(498.474014, 714.491052)"><g><path d="M 121.3125 -99.546875 C 120.226562 -95.554688 119.863281 -91.929688 120.21875 -88.671875 C 120.582031 -85.410156 122.578125 -83.78125 126.203125 -83.78125 C 128.378906 -83.78125 132.28125 -86.046875 137.90625 -90.578125 C 143.53125 -95.109375 150.875 -104.265625 159.9375 -118.046875 L 167.546875 -114.234375 C 161.378906 -103.722656 153.21875 -91.484375 143.0625 -77.515625 C 132.914062 -63.554688 121.675781 -50.046875 109.34375 -36.984375 C 97.007812 -23.929688 84.492188 -13.144531 71.796875 -4.625 C 59.109375 3.894531 46.960938 8.15625 35.359375 8.15625 C 26.648438 8.15625 18.941406 4.984375 12.234375 -1.359375 C 5.523438 -7.703125 2.171875 -17.585938 2.171875 -31.015625 C 2.171875 -38.628906 3.441406 -46.785156 5.984375 -55.484375 L 81.0625 -332.390625 C 82.875 -338.546875 83.328125 -343.800781 82.421875 -348.15625 C 81.515625 -352.507812 76.34375 -354.6875 66.90625 -354.6875 L 59.84375 -354.6875 L 60.921875 -360.125 L 201.828125 -397.125 Z M 121.3125 -99.546875 "/></g></g></g><g fill="#000000" fill-opacity="1"><g transform="translate(636.648865, 714.491052)"><g><path d="M 271.453125 -293.765625 C 283.054688 -293.765625 293.664062 -289.5 303.28125 -280.96875 C 312.894531 -272.445312 317.703125 -257.488281 317.703125 -236.09375 C 317.703125 -213.25 313.800781 -190.21875 306 -167 C 298.195312 -143.789062 287.40625 -121.671875 273.625 -100.640625 C 259.84375 -79.609375 243.703125 -60.835938 225.203125 -44.328125 C 206.710938 -27.828125 186.675781 -14.769531 165.09375 -5.15625 C 143.519531 4.445312 121.128906 9.25 97.921875 9.25 C 76.890625 9.25 57.664062 6.707031 40.25 1.625 C 22.84375 -3.445312 8.882812 -10.878906 -1.625 -20.671875 L 81.0625 -332.390625 C 82.875 -338.546875 83.328125 -343.800781 82.421875 -348.15625 C 81.515625 -352.507812 76.34375 -354.6875 66.90625 -354.6875 L 59.84375 -354.6875 L 60.921875 -360.125 L 201.828125 -397.125 L 137.09375 -152.859375 C 191.488281 -246.796875 236.273438 -293.765625 271.453125 -293.765625 Z M 155.578125 -14.140625 C 163.554688 -21.035156 170.71875 -30.644531 177.0625 -42.96875 C 183.414062 -55.300781 188.765625 -69.082031 193.109375 -84.3125 C 197.460938 -99.550781 200.816406 -115.054688 203.171875 -130.828125 C 205.535156 -146.609375 206.71875 -161.023438 206.71875 -174.078125 C 206.71875 -183.867188 205.628906 -190.394531 203.453125 -193.65625 C 201.273438 -196.925781 198.191406 -198.5625 194.203125 -198.5625 C 188.765625 -198.5625 181.054688 -192.664062 171.078125 -180.875 C 161.109375 -169.09375 147.054688 -149.78125 128.921875 -122.9375 L 105.53125 -36.984375 C 111.695312 -28.648438 119.222656 -22.757812 128.109375 -19.3125 C 136.992188 -15.863281 146.148438 -14.140625 155.578125 -14.140625 Z M 155.578125 -14.140625 "/></g></g></g><g fill="#000000" fill-opacity="1"><g transform="translate(904.838844, 714.491052)"><g><path d="M 279.078125 -83.78125 C 282.335938 -83.78125 287.503906 -86.40625 294.578125 -91.65625 C 301.648438 -96.914062 309.175781 -105.710938 317.15625 -118.046875 L 324.765625 -112.609375 C 301.921875 -73.804688 278.347656 -43.976562 254.046875 -23.125 C 229.742188 -2.269531 207.078125 8.15625 186.046875 8.15625 C 177.335938 8.15625 170.082031 5.707031 164.28125 0.8125 C 158.476562 -4.082031 155.578125 -13.238281 155.578125 -26.65625 C 155.578125 -34.269531 156.847656 -43.425781 159.390625 -54.125 C 161.929688 -64.820312 165.015625 -75.429688 168.640625 -85.953125 L 181.15625 -126.75 C 160.84375 -93.382812 142.34375 -66.816406 125.65625 -47.046875 C 108.976562 -27.285156 93.75 -13.144531 79.96875 -4.625 C 66.1875 3.894531 53.3125 8.15625 41.34375 8.15625 C 34.09375 8.15625 26.929688 6.523438 19.859375 3.265625 C 12.785156 0.00390625 7.070312 -5.703125 2.71875 -13.859375 C -1.632812 -22.023438 -3.8125 -33.363281 -3.8125 -47.875 C -3.8125 -66.363281 -0.367188 -85.128906 6.515625 -104.171875 C 13.410156 -123.210938 22.75 -141.707031 34.53125 -159.65625 C 46.320312 -177.613281 59.648438 -194.476562 74.515625 -210.25 C 89.390625 -226.03125 104.804688 -239.722656 120.765625 -251.328125 C 138.535156 -263.660156 157.578125 -273.816406 177.890625 -281.796875 C 198.203125 -289.773438 218.328125 -293.765625 238.265625 -293.765625 C 254.585938 -293.765625 269.097656 -290.863281 281.796875 -285.0625 L 338.90625 -302.46875 L 277.4375 -106.078125 C 274.894531 -97.734375 273.894531 -91.929688 274.4375 -88.671875 C 274.988281 -85.410156 276.535156 -83.78125 279.078125 -83.78125 Z M 124.03125 -83.78125 C 128.382812 -83.78125 133.28125 -85.863281 138.71875 -90.03125 C 144.15625 -94.195312 151.046875 -101.8125 159.390625 -112.875 C 167.734375 -123.9375 178.429688 -139.625 191.484375 -159.9375 L 220.859375 -253.5 C 215.054688 -258.582031 208.078125 -262.390625 199.921875 -264.921875 C 191.765625 -267.460938 183.515625 -268.734375 175.171875 -268.734375 C 161.753906 -258.210938 150.78125 -245.519531 142.25 -230.65625 C 133.726562 -215.789062 127.203125 -200.46875 122.671875 -184.6875 C 118.140625 -168.914062 114.96875 -154.5 113.15625 -141.4375 C 111.34375 -128.382812 110.4375 -118.59375 110.4375 -112.0625 C 110.4375 -100.820312 111.703125 -93.296875 114.234375 -89.484375 C 116.773438 -85.679688 120.039062 -83.78125 124.03125 -83.78125 Z M 124.03125 -83.78125 "/></g></g></g><g transform="matrix(1, 0, 0, 1, 607, 545)"><g clip-path="url(#eed9dbb788)"><g fill="#000000" fill-opacity="1"><g transform="translate(0.336797, 555.628167)"><g><path d="M 326.828125 -66.578125 L 332.28125 -65.96875 C 327.03125 -41.351562 316.941406 -22.691406 302.015625 -9.984375 C 287.085938 2.722656 268.929688 9.078125 247.546875 9.078125 C 228.984375 9.078125 214.351562 4.238281 203.65625 -5.4375 C 192.96875 -15.125 186.613281 -28.039062 184.59375 -44.1875 L 183.390625 -49.03125 C 179.359375 -34.09375 170.078125 -20.671875 155.546875 -8.765625 C 141.023438 3.128906 122.460938 9.078125 99.859375 9.078125 C 74.035156 9.078125 54.0625 1.410156 39.9375 -13.921875 C 25.820312 -29.253906 18.765625 -46.804688 18.765625 -66.578125 C 18.765625 -93.609375 28.953125 -115.800781 49.328125 -133.15625 C 69.703125 -150.507812 97.238281 -162.816406 131.9375 -170.078125 L 182.1875 -180.359375 L 182.1875 -193.078125 C 182.1875 -216.472656 177.238281 -235.429688 167.34375 -249.953125 C 157.457031 -264.484375 139.804688 -271.75 114.390625 -271.75 C 94.617188 -271.75 77.972656 -266.707031 64.453125 -256.625 C 50.941406 -246.539062 40.753906 -229.59375 33.890625 -205.78125 L 29.046875 -207 C 33.890625 -241.695312 47.40625 -269.234375 69.59375 -289.609375 C 91.789062 -309.984375 120.644531 -320.171875 156.15625 -320.171875 C 196.5 -320.171875 225.847656 -308.367188 244.203125 -284.765625 C 262.566406 -261.160156 271.75 -229.992188 271.75 -191.265625 L 271.75 -69.609375 C 271.75 -59.117188 274.066406 -51.148438 278.703125 -45.703125 C 283.347656 -40.253906 288.898438 -37.53125 295.359375 -37.53125 C 301.003906 -37.53125 306.851562 -39.546875 312.90625 -43.578125 C 318.96875 -47.609375 323.609375 -55.273438 326.828125 -66.578125 Z M 146.46875 -36.921875 C 163.414062 -36.921875 175.320312 -44.382812 182.1875 -59.3125 L 182.1875 -165.234375 L 158.578125 -161 C 142.835938 -157.769531 130.929688 -152.625 122.859375 -145.5625 C 114.796875 -138.5 109.347656 -130.328125 106.515625 -121.046875 C 103.691406 -111.765625 102.28125 -102.082031 102.28125 -92 C 102.28125 -76.664062 106.015625 -63.648438 113.484375 -52.953125 C 120.953125 -42.265625 131.945312 -36.921875 146.46875 -36.921875 Z M 146.46875 -36.921875 "/></g></g></g><g fill="#000000" fill-opacity="1"><g transform="translate(258.171239, 555.628167)"><g><path d="M 162.203125 6.046875 L 46.609375 -257.84375 C 40.148438 -273.175781 33.59375 -284.671875 26.9375 -292.328125 C 20.28125 -299.992188 12.3125 -305.039062 3.03125 -307.46875 L 3.03125 -311.09375 L 171.890625 -311.09375 L 171.890625 -307.46875 C 150.097656 -304.644531 139.203125 -295.363281 139.203125 -279.625 C 139.203125 -273.164062 141.421875 -264.488281 145.859375 -253.59375 L 203.359375 -117.421875 L 260.859375 -252.390625 C 262.878906 -257.234375 264.492188 -261.875 265.703125 -266.3125 C 266.910156 -270.75 267.515625 -274.984375 267.515625 -279.015625 C 267.515625 -286.679688 264.992188 -292.9375 259.953125 -297.78125 C 254.910156 -302.625 246.539062 -305.851562 234.84375 -307.46875 L 234.84375 -311.09375 L 325.015625 -311.09375 L 325.015625 -307.46875 C 314.929688 -304.644531 306.863281 -299.703125 300.8125 -292.640625 C 294.757812 -285.578125 288.300781 -273.976562 281.4375 -257.84375 L 165.84375 6.046875 Z M 162.203125 6.046875 "/></g></g></g><g fill="#000000" fill-opacity="1"><g transform="translate(547.478495, 555.628167)"><g><path d="M 92.609375 -339.546875 C 78.484375 -339.546875 66.578125 -344.382812 56.890625 -354.0625 C 47.210938 -363.75 42.375 -375.453125 42.375 -389.171875 C 42.375 -403.296875 47.210938 -415.097656 56.890625 -424.578125 C 66.578125 -434.066406 78.484375 -438.8125 92.609375 -438.8125 C 106.722656 -438.8125 118.519531 -434.066406 128 -424.578125 C 137.488281 -415.097656 142.234375 -403.296875 142.234375 -389.171875 C 142.234375 -375.453125 137.488281 -363.75 128 -354.0625 C 118.519531 -344.382812 106.722656 -339.546875 92.609375 -339.546875 Z M 140.421875 -43.578125 C 140.421875 -31.472656 143.445312 -22.492188 149.5 -16.640625 C 155.550781 -10.796875 164.425781 -6.457031 176.125 -3.625 L 176.125 0 L 15.125 0 L 15.125 -3.625 C 26.832031 -6.457031 35.710938 -10.796875 41.765625 -16.640625 C 47.816406 -22.492188 50.84375 -31.472656 50.84375 -43.578125 L 50.84375 -236.046875 C 50.84375 -251.785156 48.316406 -262.679688 43.265625 -268.734375 C 38.222656 -274.785156 28.84375 -278.414062 15.125 -279.625 L 15.125 -283.25 L 140.421875 -318.359375 Z M 140.421875 -43.578125 "/></g></g></g></g></g><g transform="matrix(1, 0, 0, 1, 192, 750)"><g clip-path="url(#af0fa2d4b7)"><g fill="#000000" fill-opacity="1"><g transform="translate(1.135139, 281.455699)"><g><path d="M 50.3125 -168.109375 C 41.71875 -168.109375 34.503906 -171.070312 28.671875 -177 C 22.847656 -182.9375 19.9375 -190 19.9375 -198.1875 C 19.9375 -206.570312 22.847656 -213.726562 28.671875 -219.65625 C 34.503906 -225.582031 41.71875 -228.546875 50.3125 -228.546875 C 58.90625 -228.546875 66.113281 -225.582031 71.9375 -219.65625 C 77.769531 -213.726562 80.6875 -206.570312 80.6875 -198.1875 C 80.6875 -190 77.769531 -182.9375 71.9375 -177 C 66.113281 -171.070312 58.90625 -168.109375 50.3125 -168.109375 Z M 80.984375 -24.546875 C 80.984375 -18.203125 82.414062 -13.238281 85.28125 -9.65625 C 88.144531 -6.082031 91.722656 -3.375 96.015625 -1.53125 L 96.015625 0 L 7.671875 0 L 7.671875 -1.53125 C 11.960938 -3.375 15.539062 -6.082031 18.40625 -9.65625 C 21.269531 -13.238281 22.703125 -18.203125 22.703125 -24.546875 L 22.703125 -118.71875 C 22.703125 -126.082031 21.578125 -131.601562 19.328125 -135.28125 C 17.078125 -138.96875 13.191406 -141.628906 7.671875 -143.265625 L 7.671875 -144.796875 L 80.984375 -165.65625 Z M 80.984375 -24.546875 "/></g></g></g></g></g><g fill="#000000" fill-opacity="1"><g transform="translate(170.559143, 721.991051)"><g><path d="M 330.75 -62.015625 C 331.84375 -47.503906 334.019531 -35.351562 337.28125 -25.5625 C 340.539062 -15.769531 346.882812 -8.15625 356.3125 -2.71875 L 355.78125 0 L 170.8125 0 L 171.359375 -2.71875 C 184.054688 -9.25 193.578125 -19.222656 199.921875 -32.640625 C 206.265625 -46.054688 209.253906 -63.828125 208.890625 -85.953125 L 208.359375 -137.09375 L 100.640625 -137.09375 L 61.46875 -69.09375 C 51.3125 -51.320312 47.410156 -37.265625 49.765625 -26.921875 C 52.128906 -16.585938 57.117188 -8.519531 64.734375 -2.71875 L 64.1875 0 L -35.359375 0 L -34.8125 -2.71875 C -21.03125 -8.15625 -8.519531 -16.222656 2.71875 -26.921875 C 13.957031 -37.617188 25.203125 -52.941406 36.453125 -72.890625 L 218.140625 -385.703125 L 308.453125 -385.703125 Z M 110.4375 -154.5 L 207.8125 -154.5 L 205.625 -320.421875 Z M 110.4375 -154.5 "/></g></g></g><g fill="#000000" fill-opacity="1"><g transform="translate(525.643459, 1285.075525)"><g><path d="M 37.046875 0 L -1.171875 0 L 19.71875 -26.71875 C 20.445312 -27.59375 21.222656 -28.546875 22.046875 -29.578125 C 22.878906 -30.617188 23.59375 -31.722656 24.1875 -32.890625 C 24.78125 -34.054688 25.078125 -35.234375 25.078125 -36.421875 C 25.078125 -38.335938 24.519531 -39.835938 23.40625 -40.921875 C 22.300781 -42.015625 20.867188 -42.5625 19.109375 -42.5625 C 17.191406 -42.5625 15.632812 -41.9375 14.4375 -40.6875 C 13.25 -39.445312 12.601562 -37.457031 12.5 -34.71875 L 1.546875 -34.71875 C 1.648438 -38.132812 2.363281 -41.265625 3.6875 -44.109375 C 5.007812 -46.953125 6.953125 -49.238281 9.515625 -50.96875 C 12.078125 -52.707031 15.25 -53.578125 19.03125 -53.578125 C 22.445312 -53.578125 25.445312 -52.863281 28.03125 -51.4375 C 30.625 -50.019531 32.628906 -48.015625 34.046875 -45.421875 C 35.472656 -42.835938 36.1875 -39.835938 36.1875 -36.421875 C 36.1875 -33.773438 35.707031 -31.378906 34.75 -29.234375 C 33.789062 -27.085938 32.585938 -25.082031 31.140625 -23.21875 C 29.691406 -21.351562 28.191406 -19.460938 26.640625 -17.546875 L 21.046875 -10.5625 L 37.046875 -10.5625 Z M 37.046875 0 "/></g></g></g><g fill="#000000" fill-opacity="1"><g transform="translate(574.951285, 1285.075525)"><g><path d="M 22.046875 -25.3125 C 19.828125 -25.3125 17.96875 -24.570312 16.46875 -23.09375 C 14.96875 -21.625 14.21875 -19.828125 14.21875 -17.703125 C 14.21875 -15.628906 14.96875 -13.84375 16.46875 -12.34375 C 17.96875 -10.84375 19.828125 -10.09375 22.046875 -10.09375 C 24.222656 -10.09375 26.070312 -10.84375 27.59375 -12.34375 C 29.125 -13.84375 29.890625 -15.628906 29.890625 -17.703125 C 29.890625 -19.828125 29.125 -21.625 27.59375 -23.09375 C 26.070312 -24.570312 24.222656 -25.3125 22.046875 -25.3125 Z M 22.046875 0.78125 C 18.535156 0.78125 15.300781 -0.0195312 12.34375 -1.625 C 9.394531 -3.226562 7.050781 -5.425781 5.3125 -8.21875 C 3.582031 -11.019531 2.71875 -14.179688 2.71875 -17.703125 C 2.71875 -20.035156 3.179688 -22.25 4.109375 -24.34375 C 5.046875 -26.4375 6.132812 -28.335938 7.375 -30.046875 L 23.609375 -52.8125 L 37.203125 -52.8125 L 25 -36.03125 C 28.164062 -35.664062 30.960938 -34.613281 33.390625 -32.875 C 35.828125 -31.144531 37.753906 -28.957031 39.171875 -26.3125 C 40.597656 -23.675781 41.3125 -20.804688 41.3125 -17.703125 C 41.3125 -14.179688 40.414062 -11.019531 38.625 -8.21875 C 36.84375 -5.425781 34.5 -3.226562 31.59375 -1.625 C 28.695312 -0.0195312 25.515625 0.78125 22.046875 0.78125 Z M 22.046875 0.78125 "/></g></g></g><g fill="#000000" fill-opacity="1"><g transform="translate(628.141542, 1285.075525)"><g><path d="M 4.03125 -5.984375 C 4.03125 -7.898438 4.691406 -9.515625 6.015625 -10.828125 C 7.335938 -12.148438 8.957031 -12.8125 10.875 -12.8125 C 12.738281 -12.8125 14.34375 -12.148438 15.6875 -10.828125 C 17.03125 -9.515625 17.703125 -7.898438 17.703125 -5.984375 C 17.703125 -4.117188 17.03125 -2.523438 15.6875 -1.203125 C 14.34375 0.117188 12.738281 0.78125 10.875 0.78125 C 8.957031 0.78125 7.335938 0.117188 6.015625 -1.203125 C 4.691406 -2.523438 4.03125 -4.117188 4.03125 -5.984375 Z M 4.03125 -5.984375 "/></g></g></g><g fill="#000000" fill-opacity="1"><g transform="translate(659.046676, 1285.075525)"><g><path d="M 23.921875 -43.015625 C 22.054688 -43.015625 20.5 -42.472656 19.25 -41.390625 C 18.007812 -40.304688 17.023438 -38.910156 16.296875 -37.203125 C 15.578125 -35.492188 15.070312 -33.664062 14.78125 -31.71875 C 14.5 -29.78125 14.359375 -27.984375 14.359375 -26.328125 C 14.359375 -24.515625 14.5 -22.632812 14.78125 -20.6875 C 15.070312 -18.75 15.578125 -16.9375 16.296875 -15.25 C 17.023438 -13.570312 18.007812 -12.210938 19.25 -11.171875 C 20.5 -10.140625 22.054688 -9.625 23.921875 -9.625 C 25.785156 -9.625 27.320312 -10.140625 28.53125 -11.171875 C 29.75 -12.210938 30.71875 -13.570312 31.4375 -15.25 C 32.164062 -16.9375 32.6875 -18.738281 33 -20.65625 C 33.3125 -22.570312 33.46875 -24.410156 33.46875 -26.171875 C 33.46875 -27.878906 33.320312 -29.703125 33.03125 -31.640625 C 32.75 -33.585938 32.257812 -35.425781 31.5625 -37.15625 C 30.863281 -38.894531 29.894531 -40.304688 28.65625 -41.390625 C 27.414062 -42.472656 25.835938 -43.015625 23.921875 -43.015625 Z M 23.921875 0.9375 C 20.867188 0.9375 18.175781 0.351562 15.84375 -0.8125 C 13.507812 -1.976562 11.515625 -3.53125 9.859375 -5.46875 C 8.203125 -7.414062 6.84375 -9.578125 5.78125 -11.953125 C 4.71875 -14.335938 3.941406 -16.757812 3.453125 -19.21875 C 2.960938 -21.675781 2.71875 -24.019531 2.71875 -26.25 C 2.71875 -28.164062 2.9375 -30.328125 3.375 -32.734375 C 3.8125 -35.140625 4.519531 -37.554688 5.5 -39.984375 C 6.488281 -42.421875 7.8125 -44.660156 9.46875 -46.703125 C 11.125 -48.753906 13.144531 -50.410156 15.53125 -51.671875 C 17.914062 -52.941406 20.710938 -53.578125 23.921875 -53.578125 C 27.128906 -53.578125 29.921875 -52.941406 32.296875 -51.671875 C 34.679688 -50.410156 36.703125 -48.753906 38.359375 -46.703125 C 40.015625 -44.660156 41.332031 -42.421875 42.3125 -39.984375 C 43.300781 -37.554688 44.015625 -35.140625 44.453125 -32.734375 C 44.898438 -30.328125 45.125 -28.164062 45.125 -26.25 C 45.125 -24.019531 44.875 -21.675781 44.375 -19.21875 C 43.882812 -16.757812 43.109375 -14.335938 42.046875 -11.953125 C 40.984375 -9.578125 39.625 -7.414062 37.96875 -5.46875 C 36.3125 -3.53125 34.316406 -1.976562 31.984375 -0.8125 C 29.660156 0.351562 26.972656 0.9375 23.921875 0.9375 Z M 23.921875 0.9375 "/></g></g></g><g fill="#000000" fill-opacity="1"><g transform="translate(716.041704, 1285.075525)"><g><path d="M 22.046875 -27.484375 C 24.222656 -27.484375 26.070312 -28.234375 27.59375 -29.734375 C 29.125 -31.242188 29.890625 -33.03125 29.890625 -35.09375 C 29.890625 -37.21875 29.125 -39.019531 27.59375 -40.5 C 26.070312 -41.976562 24.222656 -42.71875 22.046875 -42.71875 C 19.828125 -42.71875 17.96875 -41.976562 16.46875 -40.5 C 14.96875 -39.019531 14.21875 -37.21875 14.21875 -35.09375 C 14.21875 -33.03125 14.96875 -31.242188 16.46875 -29.734375 C 17.96875 -28.234375 19.828125 -27.484375 22.046875 -27.484375 Z M 22.046875 -53.578125 C 25.566406 -53.578125 28.789062 -52.773438 31.71875 -51.171875 C 34.644531 -49.566406 36.972656 -47.363281 38.703125 -44.5625 C 40.441406 -41.769531 41.3125 -38.613281 41.3125 -35.09375 C 41.3125 -32.769531 40.84375 -30.554688 39.90625 -28.453125 C 38.976562 -26.359375 37.921875 -24.457031 36.734375 -22.75 L 20.5 0 L 6.828125 0 L 19.03125 -16.78125 C 15.914062 -17.132812 13.128906 -18.175781 10.671875 -19.90625 C 8.210938 -21.644531 6.269531 -23.847656 4.84375 -26.515625 C 3.425781 -29.179688 2.71875 -32.039062 2.71875 -35.09375 C 2.71875 -38.613281 3.609375 -41.769531 5.390625 -44.5625 C 7.179688 -47.363281 9.535156 -49.566406 12.453125 -51.171875 C 15.378906 -52.773438 18.578125 -53.578125 22.046875 -53.578125 Z M 22.046875 -53.578125 "/></g></g></g><g fill="#000000" fill-opacity="1"><g transform="translate(769.231961, 1285.075525)"><g><path d="M 4.03125 -5.984375 C 4.03125 -7.898438 4.691406 -9.515625 6.015625 -10.828125 C 7.335938 -12.148438 8.957031 -12.8125 10.875 -12.8125 C 12.738281 -12.8125 14.34375 -12.148438 15.6875 -10.828125 C 17.03125 -9.515625 17.703125 -7.898438 17.703125 -5.984375 C 17.703125 -4.117188 17.03125 -2.523438 15.6875 -1.203125 C 14.34375 0.117188 12.738281 0.78125 10.875 0.78125 C 8.957031 0.78125 7.335938 0.117188 6.015625 -1.203125 C 4.691406 -2.523438 4.03125 -4.117188 4.03125 -5.984375 Z M 4.03125 -5.984375 "/></g></g></g><g fill="#000000" fill-opacity="1"><g transform="translate(800.137095, 1285.075525)"><g><path d="M 37.046875 0 L -1.171875 0 L 19.71875 -26.71875 C 20.445312 -27.59375 21.222656 -28.546875 22.046875 -29.578125 C 22.878906 -30.617188 23.59375 -31.722656 24.1875 -32.890625 C 24.78125 -34.054688 25.078125 -35.234375 25.078125 -36.421875 C 25.078125 -38.335938 24.519531 -39.835938 23.40625 -40.921875 C 22.300781 -42.015625 20.867188 -42.5625 19.109375 -42.5625 C 17.191406 -42.5625 15.632812 -41.9375 14.4375 -40.6875 C 13.25 -39.445312 12.601562 -37.457031 12.5 -34.71875 L 1.546875 -34.71875 C 1.648438 -38.132812 2.363281 -41.265625 3.6875 -44.109375 C 5.007812 -46.953125 6.953125 -49.238281 9.515625 -50.96875 C 12.078125 -52.707031 15.25 -53.578125 19.03125 -53.578125 C 22.445312 -53.578125 25.445312 -52.863281 28.03125 -51.4375 C 30.625 -50.019531 32.628906 -48.015625 34.046875 -45.421875 C 35.472656 -42.835938 36.1875 -39.835938 36.1875 -36.421875 C 36.1875 -33.773438 35.707031 -31.378906 34.75 -29.234375 C 33.789062 -27.085938 32.585938 -25.082031 31.140625 -23.21875 C 29.691406 -21.351562 28.191406 -19.460938 26.640625 -17.546875 L 21.046875 -10.5625 L 37.046875 -10.5625 Z M 37.046875 0 "/></g></g></g><g fill="#000000" fill-opacity="1"><g transform="translate(849.444921, 1285.075525)"><g><path d="M 23.921875 -43.015625 C 22.054688 -43.015625 20.5 -42.472656 19.25 -41.390625 C 18.007812 -40.304688 17.023438 -38.910156 16.296875 -37.203125 C 15.578125 -35.492188 15.070312 -33.664062 14.78125 -31.71875 C 14.5 -29.78125 14.359375 -27.984375 14.359375 -26.328125 C 14.359375 -24.515625 14.5 -22.632812 14.78125 -20.6875 C 15.070312 -18.75 15.578125 -16.9375 16.296875 -15.25 C 17.023438 -13.570312 18.007812 -12.210938 19.25 -11.171875 C 20.5 -10.140625 22.054688 -9.625 23.921875 -9.625 C 25.785156 -9.625 27.320312 -10.140625 28.53125 -11.171875 C 29.75 -12.210938 30.71875 -13.570312 31.4375 -15.25 C 32.164062 -16.9375 32.6875 -18.738281 33 -20.65625 C 33.3125 -22.570312 33.46875 -24.410156 33.46875 -26.171875 C 33.46875 -27.878906 33.320312 -29.703125 33.03125 -31.640625 C 32.75 -33.585938 32.257812 -35.425781 31.5625 -37.15625 C 30.863281 -38.894531 29.894531 -40.304688 28.65625 -41.390625 C 27.414062 -42.472656 25.835938 -43.015625 23.921875 -43.015625 Z M 23.921875 0.9375 C 20.867188 0.9375 18.175781 0.351562 15.84375 -0.8125 C 13.507812 -1.976562 11.515625 -3.53125 9.859375 -5.46875 C 8.203125 -7.414062 6.84375 -9.578125 5.78125 -11.953125 C 4.71875 -14.335938 3.941406 -16.757812 3.453125 -19.21875 C 2.960938 -21.675781 2.71875 -24.019531 2.71875 -26.25 C 2.71875 -28.164062 2.9375 -30.328125 3.375 -32.734375 C 3.8125 -35.140625 4.519531 -37.554688 5.5 -39.984375 C 6.488281 -42.421875 7.8125 -44.660156 9.46875 -46.703125 C 11.125 -48.753906 13.144531 -50.410156 15.53125 -51.671875 C 17.914062 -52.941406 20.710938 -53.578125 23.921875 -53.578125 C 27.128906 -53.578125 29.921875 -52.941406 32.296875 -51.671875 C 34.679688 -50.410156 36.703125 -48.753906 38.359375 -46.703125 C 40.015625 -44.660156 41.332031 -42.421875 42.3125 -39.984375 C 43.300781 -37.554688 44.015625 -35.140625 44.453125 -32.734375 C 44.898438 -30.328125 45.125 -28.164062 45.125 -26.25 C 45.125 -24.019531 44.875 -21.675781 44.375 -19.21875 C 43.882812 -16.757812 43.109375 -14.335938 42.046875 -11.953125 C 40.984375 -9.578125 39.625 -7.414062 37.96875 -5.46875 C 36.3125 -3.53125 34.316406 -1.976562 31.984375 -0.8125 C 29.660156 0.351562 26.972656 0.9375 23.921875 0.9375 Z M 23.921875 0.9375 "/></g></g></g><g fill="#000000" fill-opacity="1"><g transform="translate(906.43995, 1285.075525)"><g><path d="M 37.046875 0 L -1.171875 0 L 19.71875 -26.71875 C 20.445312 -27.59375 21.222656 -28.546875 22.046875 -29.578125 C 22.878906 -30.617188 23.59375 -31.722656 24.1875 -32.890625 C 24.78125 -34.054688 25.078125 -35.234375 25.078125 -36.421875 C 25.078125 -38.335938 24.519531 -39.835938 23.40625 -40.921875 C 22.300781 -42.015625 20.867188 -42.5625 19.109375 -42.5625 C 17.191406 -42.5625 15.632812 -41.9375 14.4375 -40.6875 C 13.25 -39.445312 12.601562 -37.457031 12.5 -34.71875 L 1.546875 -34.71875 C 1.648438 -38.132812 2.363281 -41.265625 3.6875 -44.109375 C 5.007812 -46.953125 6.953125 -49.238281 9.515625 -50.96875 C 12.078125 -52.707031 15.25 -53.578125 19.03125 -53.578125 C 22.445312 -53.578125 25.445312 -52.863281 28.03125 -51.4375 C 30.625 -50.019531 32.628906 -48.015625 34.046875 -45.421875 C 35.472656 -42.835938 36.1875 -39.835938 36.1875 -36.421875 C 36.1875 -33.773438 35.707031 -31.378906 34.75 -29.234375 C 33.789062 -27.085938 32.585938 -25.082031 31.140625 -23.21875 C 29.691406 -21.351562 28.191406 -19.460938 26.640625 -17.546875 L 21.046875 -10.5625 L 37.046875 -10.5625 Z M 37.046875 0 "/></g></g></g><g fill="#000000" fill-opacity="1"><g transform="translate(955.747776, 1285.075525)"><g><path d="M 22.046875 -25.3125 C 19.828125 -25.3125 17.96875 -24.570312 16.46875 -23.09375 C 14.96875 -21.625 14.21875 -19.828125 14.21875 -17.703125 C 14.21875 -15.628906 14.96875 -13.84375 16.46875 -12.34375 C 17.96875 -10.84375 19.828125 -10.09375 22.046875 -10.09375 C 24.222656 -10.09375 26.070312 -10.84375 27.59375 -12.34375 C 29.125 -13.84375 29.890625 -15.628906 29.890625 -17.703125 C 29.890625 -19.828125 29.125 -21.625 27.59375 -23.09375 C 26.070312 -24.570312 24.222656 -25.3125 22.046875 -25.3125 Z M 22.046875 0.78125 C 18.535156 0.78125 15.300781 -0.0195312 12.34375 -1.625 C 9.394531 -3.226562 7.050781 -5.425781 5.3125 -8.21875 C 3.582031 -11.019531 2.71875 -14.179688 2.71875 -17.703125 C 2.71875 -20.035156 3.179688 -22.25 4.109375 -24.34375 C 5.046875 -26.4375 6.132812 -28.335938 7.375 -30.046875 L 23.609375 -52.8125 L 37.203125 -52.8125 L 25 -36.03125 C 28.164062 -35.664062 30.960938 -34.613281 33.390625 -32.875 C 35.828125 -31.144531 37.753906 -28.957031 39.171875 -26.3125 C 40.597656 -23.675781 41.3125 -20.804688 41.3125 -17.703125 C 41.3125 -14.179688 40.414062 -11.019531 38.625 -8.21875 C 36.84375 -5.425781 34.5 -3.226562 31.59375 -1.625 C 28.695312 -0.0195312 25.515625 0.78125 22.046875 0.78125 Z M 22.046875 0.78125 "/></g></g></g></svg>